<svg id="Capa_1" data-name="Capa 1" xmlns="http://www.w3.org/2000/svg" viewBox="0 0 50 48.06">
  <defs>
    <style>
      .cls-1 {
        fill: #fff;
        fill-rule: evenodd;
      }
    </style>
  </defs>
  <path class="cls-1" d="M54.65,26.12a2.88,2.88,0,0,1,2.49,2.55V42H71.43a3.86,3.86,0,0,1,3.17,1.44,2.11,2.11,0,0,1-.25,2.76l-25,26.7a4.26,4.26,0,0,1-4,1,2.88,2.88,0,0,1-2.49-2.55V58H28.57A3.86,3.86,0,0,1,25.4,56.6a2.11,2.11,0,0,1,.25-2.76l25-26.7A4.26,4.26,0,0,1,54.65,26.12Z" transform="translate(-25 -26)"/>
</svg>
